Coordinates
version=1
nRows=8
nColumns=40
inDegrees=yes

Units are S.I. units (second, meters, Newtons, ...)
Angles are in degrees.

endheader
time	pelvis_tilt	pelvis_list	pelvis_rotation	pelvis_tx	pelvis_ty	pelvis_tz	hip_flexion_r	hip_adduction_r	hip_rotation_r	knee_angle_r	knee_angle_r_beta	ankle_angle_r	subtalar_angle_r	mtp_angle_r	hip_flexion_l	hip_adduction_l	hip_rotation_l	knee_angle_l	knee_angle_l_beta	ankle_angle_l	subtalar_angle_l	mtp_angle_l	lumbar_extension	lumbar_bending	lumbar_rotation	arm_flex_r	arm_add_r	arm_rot_r	elbow_flex_r	pro_sup_r	wrist_flex_r	wrist_dev_r	arm_flex_l	arm_add_l	arm_rot_l	elbow_flex_l	pro_sup_l	wrist_flex_l	wrist_dev_l
     34.29000000	     -8.82931238	     -5.19175504	      2.36823915	      1.09812520	      0.92603910	      0.49968580	     15.72762083	      3.25602367	    -15.47284444	     14.52125274	     14.52125274	      9.34963795	     -2.25539181	     -4.23914695	     40.78719895	     -9.03423531	      4.98283366	     51.73968008	     51.73968008	     11.34177501	    -19.20869637	     19.40246387	    -13.04431697	      5.04118992	      2.17793046	     25.87950826	    -22.45903477	      2.58441426	     72.14153226	     44.84212142	      0.00000000	      0.00000000	     -1.17804911	     -7.27784845	     -7.59791495	     34.49296881	     46.65680789	      0.00000000	      0.00000000
     34.30200000	     -9.05044116	     -5.11095474	      2.64352147	      1.09713578	      0.92580641	      0.49936250	     15.41461299	      3.15130223	    -15.61289283	     14.32281548	     14.32281548	      9.60465822	     -2.27047829	     -4.30443288	     41.33918698	     -8.46913619	      5.07067419	     48.81393727	     48.81393727	     11.42778033	    -19.06895798	     19.45174018	    -12.93230343	      5.04126696	      2.27237849	     27.30321774	    -22.50458930	      2.43021500	     73.38466401	     44.81526519	      0.00000000	      0.00000000	     -1.48361612	     -7.11988741	     -7.61951839	     33.94805055	     46.65201384	      0.00000000	      0.00000000
     34.31400000	     -9.10245390	     -5.06619884	      2.91003865	      1.09648322	      0.92577572	      0.49904404	     14.86678470	      3.05543616	    -16.05742666	     14.10286998	     14.10286998	      9.96061921	     -1.66839250	     -4.42284444	     41.46126926	     -7.97605901	      5.20752914	     45.60399462	     45.60399462	     10.54929703	    -18.85126903	     16.94696406	    -13.01544813	      5.07507121	      2.58920470	     27.70840430	    -22.86182542	      2.54850010	     77.38688933	     44.71450642	      0.00000000	      0.00000000	     -0.95843116	     -6.86374269	     -8.33280216	     31.36598923	     46.73133733	      0.00000000	      0.00000000
     34.32600000	     -9.23876118	     -4.94552253	      3.12313644	      1.09578248	      0.92570028	      0.49859201	     14.39208701	      2.92974111	    -16.13922573	     13.81946117	     13.81946117	     10.21727127	     -1.59813580	     -4.45006206	     41.61593044	     -7.33728340	      5.50835674	     42.52937454	     42.52937454	     10.53698614	    -18.39145018	     16.86472193	    -12.95765372	      4.99348399	      2.51204355	     29.04661873	    -22.38031384	      2.31845007	     78.68171745	     44.69148477	      0.00000000	      0.00000000	     -1.36620724	     -6.85463980	     -8.39309731	     30.86644948	     46.72884844	      0.00000000	      0.00000000
     34.33800000	     -9.33762849	     -4.94027542	      3.34916553	      1.09527445	      0.92557859	      0.49806302	     13.82831342	      2.90324291	    -16.48280857	     13.47164946	     13.47164946	     10.48127177	     -1.13652724	     -4.48738301	     41.64064280	     -6.85280950	      5.87298964	     39.46595368	     39.46595368	     10.34439370	    -17.58320971	     15.92909231	    -12.94770509	      5.07758057	      2.31636371	     30.30751252	    -21.78155067	      2.19740263	     80.58472398	     44.65011253	      0.00000000	      0.00000000	     -1.73085130	     -6.81848623	     -8.53509031	     30.17199498	     46.73572447	      0.00000000	      0.00000000
     34.35000000	     -9.46044811	     -4.95824519	      3.50267944	      1.09495598	      0.92533478	      0.49753579	     13.27781186	      2.88424992	    -16.97395755	     13.14281237	     13.14281237	     10.86121117	     -0.28149272	     -4.40328237	     41.51335725	     -6.55441748	      5.98352082	     36.28657681	     36.28657681	      9.35780891	    -16.52034189	     12.67558020	    -12.89341981	      5.15819553	      2.75356711	     30.94070861	    -21.83007218	      1.99381330	     82.88786903	     44.62559507	      0.00000000	      0.00000000	     -1.67477804	     -6.65525244	     -9.08937761	     29.33410198	     46.79075374	      0.00000000	      0.00000000
     34.36200000	     -9.52577114	     -4.98243859	      3.61914534	      1.09479602	      0.92518873	      0.49701993	     12.62645364	      2.95149361	    -17.07566558	     12.71440941	     12.71440941	     11.08408642	     -0.02991299	     -4.36996566	     41.35764567	     -6.31046798	      6.06543482	     33.49780527	     33.49780527	      9.57821207	    -15.00784262	     12.48883347	    -12.86134100	      5.23496051	      2.76513542	     32.13759276	    -21.18884511	      1.91781010	     84.04322000	     44.60571401	      0.00000000	      0.00000000	     -2.03823883	     -6.67027519	     -9.16101868	     29.01858156	     46.78816671	      0.00000000	      0.00000000
     34.37400000	     -9.71907212	     -5.12074723	      3.68750992	      1.09468057	      0.92469035	      0.49648329	     12.20397436	      3.10511683	    -17.20562596	     12.45609352	     12.45609352	     11.31323041	      0.16926233	     -4.42434165	     41.32047017	     -6.19810997	      6.15911114	     30.91990231	     30.91990231	      9.76737811	    -13.63763855	     12.61144595	    -12.63205561	      5.44737836	      3.07141927	     33.17668319	    -20.86428739	      1.88893255	     84.79872930	     44.58964250	      0.00000000	      0.00000000	     -2.30249785	     -6.63078367	     -9.18369236	     28.88937309	     46.78504664	      0.00000000	      0.00000000
